<?xml version="1.0" encoding="UTF-8"?><svg id="a" xmlns="http://www.w3.org/2000/svg" viewBox="0 0 800 600.7"><path d="M591.88,483.82c-6.62,2.41-13.26,4.78-19.86,7.25-6.34,2.38-12.63,4.87-19.17,6.77,1.62-.9,3.24-1.8,4.87-2.71l-.17-.45c-3.22,1.11-6.43,2.22-9.65,3.33-.17-.32-.35-.64-.52-.96l1.48-2.28c-.41-.02-.84-.18-1.11-.04-7.11,3.56-14.19,7.16-21.29,10.72-1.67,.84-3.41,1.54-5.43,1.66,10.7-8.07,22.94-13.36,34.35-20.23-4.78,2.15-9.56,4.28-14.33,6.45-5.89,2.69-11.65,5.38-18.51,5.04-3.16-.16-6.39,1.71-9.64,2.44-4.76,1.07-9.57,1.95-15.08,3.05,3.98-2.66,7.54-5.05,11.1-7.44l-.19-.54c-7.1,2.52-14.2,5.05-21.3,7.57l-.18-.44,9.42-4.18-.16-.55c-7.69,2.28-15.39,4.56-23.08,6.84l-.45-.8,15-8.38-.4-.94c-10.4,3.76-20.79,7.53-31.19,11.29l-.41-.98c4.52-2.19,9.04-4.38,13.56-6.57l-.23-.57c-3.68,1.46-7.5,2.63-11.01,4.43-7.29,3.73-15.48,3.97-23.08,6.43-2.57,.83-5.03,2-7.91,2.3l10.73-6.53c-.07-.18-.14-.36-.22-.54-12.52,3.88-25.04,7.77-37.56,11.65-.14-.18-.29-.36-.43-.54,6.55-3.97,13.1-7.93,19.65-11.9l-.37-.85c-11.74,4.8-23.47,9.61-35.21,14.41-.17-.37-.34-.74-.51-1.11,6.05-3.15,12.09-6.31,18.14-9.46-.1-.21-.19-.41-.29-.62-6.4,2.84-12.73,5.83-19.22,8.46-3.49,1.41-7.22,2.2-11.08,2.56,2.24-1.96,4.49-3.91,6.73-5.87l-.14-.55c-2.24,.65-4.49,1.3-7.63,2.22,3.57-2.33,6.41-4.18,9.25-6.03l-.24-.59c-2.76,.85-5.52,1.7-8.74,2.69,1.22-.99,2.1-1.71,3.83-3.1-2.07,.56-3.16,.85-5.51,1.49,2.74-3.65,4.91-6.55,6.96-9.29-.07,0-.71,.06-1.66,.13,.92-1.93,1.73-3.66,2.55-5.39-4.63,7.04-9.44,13.99-10.81,22.49-.53,3.29-2.43,5.4-5.45,5.1-1.97-.2-4.33-1.93-5.46-3.67-1.43-2.2,.21-4.22,2.19-5.77,2.89-2.26,5.65-4.68,8.46-7.03-.26-.41-.52-.81-.78-1.21-.94,.35-1.9,.64-2.8,1.07-2.58,1.22-2.55,1.21-6.02-.38-.43-.2-1.16,.19-1.72,.38-2.87,.97-5.73,1.99-8.61,2.94-1.19,.39-2.53,1.1-3.64,.88-5.13-1.03-9.89,.73-14.84,1.31-13.45,1.58-15.21,1.62-21.54,5.25,1.74,.42,3.33,.81,4.93,1.19l-.03,1.18c-3.65,.09-7.54,1.04-10.9,.1-5.99-1.68-11.77-.85-17.66-.37-.95,.08-1.91,.01-2.89-.32,6.27-3.59,12.33-7.01,20.09-3.85,2.58,1.05,6.07-.14,9.14-.31l.09-1.91c-8.4-1.19-16.8-2.39-25.7-3.65,3.21-1.9,6.66-4.44,9.99-2.86,6.94,3.3,12.01,1.19,16.8-3.72,.52-.53,1.19-.9,2.72-2.04-6.83,2.13-13.28,.9-18.38,5.66-.22-.58-.44-1.16-.66-1.74,4.87-3.16,9.74-6.32,14.62-9.48l-.17-.59c-8.86,3.34-17.72,6.68-26.59,10.02l-.24-.59c4.29-1.94,8.57-3.88,12.86-5.83l-.2-.63c-9.77,3.08-19.54,6.16-29.31,9.24l-.43-.76c7.6-4.24,15.2-8.48,22.8-12.72l-.4-.89c-12.68,4.92-25.36,9.84-38.04,14.76l-.38-.85c6.64-3.4,13.29-6.81,19.93-10.21l-.16-.44c-2.19,.85-4.39,1.66-6.55,2.57-6.4,2.69-12.76,5.5-19.22,8.06-.98,.39-2.38-.29-4.24-.58,2.45-1.66,4.44-3.01,7.12-4.83-2.18,.37-3.51,.59-6.02,1.01,2.74-2.47,4.7-4.24,6.67-6.01l-.17-.44c-3.79,1.56-7.5,3.36-11.39,4.59-2.38,.75-5.03,.65-7.56,.91-.37,.04-.78-.12-1.14-.04-6.58,1.36-13.59-.44-19.93,2.91-1.93,1.02-4.27,1.27-6.43,1.88l-.43-.93c4.18-2.16,8.36-4.31,12.54-6.47l-.5-1.1c-4.16,1.9-8.68,3.3-12.38,5.87-3,2.08-5.64,.79-8.42,.84-5.16,.08-10.33-.07-15.49-.14-1.33-.02-2.65-.11-4.06-.92,3.64-1.55,7.24-3.17,10.93-4.59,.99-.38,2.28-.41,3.32-.15,3,.76,5.9,2.01,8.94,2.53,1.13,.19,2.51-1.13,4.68-2.2-1.57-.43-2.15-.59-3.24-.9,2.61-2.27,5.04-4.37,7.46-6.47l-.67-.97c-5.08,2.18-10.17,4.36-15.25,6.54l-.33-.73c5.12-3.13,10.25-6.26,15.37-9.4l-.31-.81c-3.71,.89-7.42,1.78-11.14,2.68,2.41-1.74,4.8-3.45,7.18-5.17l-.32-.53c-4.93,2.11-9.86,4.21-14.79,6.32l-.48-.63c1.32-1.25,2.65-2.5,3.97-3.75l-.26-.42c-6.58,3.58-13.16,7.16-19.73,10.73l-.42-.55c.65-.73,1.31-1.45,2.36-2.62-1.33,.32-2.2,.53-3.52,.84,.7-.86,1.13-1.39,1.8-2.22-.95,.07-1.64,.12-3.1,.23,2.11-1.56,3.6-2.67,5.1-3.78l-.27-.52-10.11,4.97-.49-.85c1.93-1.55,3.86-3.09,6.87-5.51h-27.98l-.06-1.22c6.28-2.43,11.91-7.3,19.7-3.81,1.5,.67,4.2-.72,6.07-1.69,1.95-1,3.57-2.64,5.77-3.54-.65,.76-1.29,1.51-1.94,2.27l.32,.43,3.46-2.28,.44,.47c-1.23,1.42-2.45,2.83-3.61,4.16,5.28-2.8,10.67-5.47,15.83-8.55,1.17-.7,1.48-2.82,2.31-4.53-.87,.21-1.52,.37-2.25,.55,.09-.28,.08-.55,.21-.63,3.36-2.24,6.58-4.78,10.16-6.6,5.33-2.72,10.6-5.86,13.4-10.99,1.85-3.38,5.32-4.17,6.89-7.84-6.81,2.38-13.63,4.75-20.44,7.13l-.26-.53c3.53-1.72,7.06-3.43,10.59-5.15l-.12-.38c-5.49,1.66-10.98,3.31-16.46,4.97,17.91-12.05,36.51-22.83,53.01-36.69-20.4,12.4-38.71,28.32-61.67,36.37-.61,.23-1.23,.47-1.84,.7-1.96,.27-3.93,.54-5.89,.81l-.2-.5c6.15-2.91,12.3-5.83,18.45-8.74l-.28-.63c-9.98,3.96-19.97,7.93-29.95,11.89l-.49-1c2.12-1.4,4.25-2.81,6.37-4.21l-.2-.44c-5.72,2.54-11.45,5.09-17.17,7.63l-.36-.74c5.37-3.13,10.73-6.25,16.1-9.38-18.31,8.81-36.75,17.16-57.51,19.27,2.42-1.43,4.84-2.87,6.66-3.95-8.55,1.2-17.64,2.54-26.75,3.71-1.4,.18-2.89-.38-4.34-.6l-.12,.11c10.2-2.6,20.39-5.2,30.59-7.8l-.15-.65c-5.41,1-10.82,1.99-16.23,2.99l-.13-.41c1.6-.52,3.2-1.05,4.8-1.57l-.14-.68c-10.48,1.71-20.96,3.42-31.44,5.13l-.22-.78c5.37-1.82,10.74-3.64,16.11-5.46v-.21l-8.02,1.37-.25-.79,22.69-6.92-.11-.7c-4.62,.92-9.24,1.86-13.87,2.76-4.58,.89-9.17,1.74-13.76,2.61l-.19-1.17c1.2-.12,2.4-.25,4.4-.45-4.61-1.81-8.58-3.37-12.54-4.93,6.07-1.11,10.67,4.26,16.74,3.15-4.16-.19-5.99-2.94-7.71-6.15-2.02-3.78-4.44-7.35-6.69-11.02l.7-.89c4.55,3.5,9.1,6.99,13.82,10.61-.12-2.04-.22-3.9-.33-5.76,.36-.11,.71-.22,1.07-.33,1.44,3.17,2.88,6.34,4.56,10.05,1.88-4.48,3.92-8.24,.11-11.95,2.94-1.61,5.45-2.98,7.96-4.35-4.53,.67-8.78,1.54-10.5-3.58,2.19-.31,4.67-.03,6.31-1.07,1.86-1.18,2.98-3.54,5.06-6.21-4.65,1.71-8.26,2.67-11.04-1.18,7.28-.79,11.47-4.95,12.23-12.91-2.35,2.11-4.24,3.8-6.08,5.44-1.38-.93-2.74-1.85-4.86-3.27,1.91-1.45,3.8-2.86,5.67-4.32,1.82-1.42,3.6-2.88,5.54-4.43-2.66-1.49-4.36-2.44-6.06-3.39l.19-.91c1.61-.13,3.38,.1,4.77-.53,.86-.39,1.13-2.08,1.66-3.19-.59-.23-1.18-.46-1.77-.69,.8-5.14,1.66-10.67,2.52-16.21l.51-.14c.75,3.57,1.5,7.14,2.21,10.51,5.89-.06,7.59-3.18,8.31-7.75,.21-1.32,2.19-2.82,3.68-3.39,2.44-.94,5.21-1.01,7.71-1.82,.85-.27,1.35-1.67,2-2.55-1.19-.83-2.4-2.38-3.56-2.34-2.16,.08-4.3,1.07-6.87,1,.88-1.08,1.76-2.16,2.73-3.34h-7.82l-.62-1.19c10.3-3.29,18.81-8.69,24.22-19.48-4.46,3.35-8.05,6.04-11.64,8.74l-.94-1.13,5.88-4.28-.82-.77c-2.18,.7-4.48,2.13-6.5,1.8-1.06-.17-1.63-3.41-2.41-5.23-1.66,1.14-3.92,2.69-7,4.8,.27-2.76,.43-4.31,.58-5.88-6.67,6.44-8.81,7.13-13.49,4.07,.8-1.19,1.6-2.38,2.58-3.84-1.67-.7-3.21-1.34-5.63-2.35,1.9-.41,2.97-.63,4.14-.88-2.2-.73-4.21-1.4-6.77-2.26,3.94-1.65,6.99-3.19,11.15-2.21,8.17,1.92,17.55-4.19,19.38-12.16-.86,.51-1.56,.92-2.45,1.44-.81-1.54-1.61-3.06-2.49-4.73,7.12-4.24,14.15-8.44,21.19-12.64l-.41-.81c-3.04,1-6.03,2.47-9.15,2.87-2.72,.35-5.16,3.94-8.49,1.23q-2.85,3.09-5.13,1.51-3.64,3.12-10.65-2.85c10.67,.55,14.87-9.14,23.59-12.93l-1.69,6.2c5.47-6.35,7.57-13.85,8.19-22.21-4.7,.19-7.28,7.75-13.15,3.17-.91,.45-2.35,1.17-3.88,1.93-.14-3.37-.16-3.39,5.93-8.76,2.75-2.42,5.59-4.75,8.6-7.3-.57-1.24-1.1-2.43-1.81-3.99-1.53,1.71-2.49,4.85-5.14,1.87-1.56,3.17-4.22-.32-6.45,1.85,.52-1.78,.79-2.7,1.2-4.1-1.94-.29-3.62-.54-5.02-.75-.3-.98-.62-2.02-1.04-3.38,1.32,0,2.87,.24,4.3-.05,2.62-.55,5.2-1.35,7.76-2.16,2.95-.92,5.86-1.96,8.79-2.95l-.1,.1c4,3.71,5.08,3.62,10.04-1.29,3.67,2.04,7.52,4.19,11.37,6.33,1.74,1.93,3.47,3.86,5.21,5.79,.85,1.63,1.69,3.26,3.08,5.94-4.48-1.7-7.43-1.11-10.02,2.38-1.48,2-6.27-.19-8.6-4.05-.27,2.18-.6,3.65-.6,5.12,0,2.15,.46,4.32,.33,6.46-.47,7.76,4.06,11.98,10.32,15.08,5.33,2.64,10.65,5.3,17.03,3.38l.35,1.05-4.03,3.22c1.92,2.11,1.11,3.32-4.58,5.82,1.73,0,2.87,.09,4-.03,1.04-.11,2.06-.43,3.4,.18-1.58,.77-3.16,1.55-5.07,2.49,5.67,1.93,11.14-5.04,16.41,.69l-2.29,3.87c2.04-1.68,3.51-2.89,5.21-4.29,.5,7.92-7.18,10.46-12.86,9.14-8.96-2.08-15.59-7.51-20.99-14.69-.61-.81-1.22-1.61-1.88-2.37-.13-.15-.45-.13-1.15-.32,1.31,3.57,2.52,6.88,3.73,10.2l-.75,.69c-1.83-1.02-3.66-2.05-5.49-3.07l-.99,.6c.87,1.89,1.27,4.86,2.7,5.49,6.98,3.09,11.77,8.69,17.13,13.68,.64,.6,1.39,1.08,2.46,1.91h-3.4c.87,1.13,1.64,2.13,2.4,3.12l-.47,.79c-3.1-1.75-6.21-3.5-9.92-5.59,.95,3.16,1.78,5.94,2.71,9.05-3.56-3.01-6.94-5.88-10.33-8.75l-1.26,.47c.26,3.58,.52,7.15,.78,10.73,.38-.02,.75-.03,1.13-.05-.16-2.26-.33-4.52-.49-6.77l.83-.57c1.69,1.89,3.33,3.83,5.06,5.67,3.27,3.48,6.29,7.32,10.04,10.19,1.76,1.34,4.97,.77,7.52,1.08,1.85,.23,3.54-.1,4.86,2.3,.81,1.45,3.94,1.62,6.05,2.37l.8-7.98,.8-.2c.44,1.41,1.36,2.87,1.23,4.22-.43,4.29,1.14,6.27,5.85,6.29-1.73,.88-3.46,1.76-5.92,3.01,2.79,.78,4.93,1.37,8.04,2.24-3.45,2.55-6.51,4.81-10.16,7.52,.54,2.74,2.65,5.51,5.6,6.75,3.12-2.92,5.53-5.54,8.31-7.7,3.44-2.66,4.06-6.17,4.04-10.11-1.31,.34-2.52,.65-3.73,.96l-.53-.83c2.47-3.54,4.93-7.09,7.45-10.71-4.1,1.89-7.65,3.52-11.4,5.24-1.51-2.2-2.98-4.35-4.28-6.25,2.19-1.88,4.22-3.83,6.46-5.48,2.55-1.89,5.36-3.44,7.93-5.31,.8-.59,1.2-1.74,1.6-2.35-4.67-.93-8.57-1.7-12.72-2.52-.33-4.22,4.85-3.07,6.45-5.81,1.34,.79,2.68,1.58,4.68,2.76v-10.64c-4,.4-6.66,6.3-13.17,3.03,1.13-.45,1.82-.7,2.49-1,3.03-1.34,6.08-2.66,9.08-4.08,.6-.29,1.36-.96,1.43-1.53,.63-5.33,1.2-10.67,1.65-16.02,.33-3.84,.45-7.69,.66-11.43,2.42,1.47,2.94,3.7,2.6,6.78-.24,2.2,.47,4.78,1.54,6.78,1.13,2.12,1.88,3.62-.99,5.06l3.71,5.3c-1.69-.68-2.89-1.16-4.12-1.65-2.3,5.43,.73,8.53,4.89,11.02q-2.6,4.56,3.58,11.17c-3,1.31-5.7,2.48-8.91,3.88,1.22,3.81,6.86,3.85,8.97,8.2-3.09-.49-5.83-.93-9.4-1.5,2.08,7.69,8.15,11.35,13.07,15.56-.13,2.63-.26,5.12-.44,8.69-1.63-1.97-2.5-3.01-4.04-4.87,.62,2.43,1.01,3.96,1.45,5.7-1.68-.53-3.26-1.04-4.83-1.54-.16,.25-.33,.5-.49,.74,2.09,1.87,4.17,3.73,5.61,5.02,1.88-.97,3.16-1.63,4.43-2.29,3.58,4.14,.15,8.51,.56,13.52,4.59-5.8,8.85-11.17,13.5-17.04-3.32,.61-6.32,1.16-9.32,1.71l-.6-1.14c5.32-3.16,10.58-6.38,12.25-13.85-2.55,.96-4.42,1.67-6.55,2.48-.45-1.33-.88-2.59-1.32-3.9,1.79-1.21,3.63-2.45,5.52-3.72-2.23-1.4-4.19-2.64-6.55-4.12,2.64-1.37,4.83-2.29,6.73-3.62,.65-.46,.88-1.95,.77-2.91-.06-.53-1.23-.91-1.86-1.41-.74-.58-1.86-1.12-2.04-1.86-.16-.67,.54-1.86,1.21-2.35,3.07-2.23,4.12-5.26,4.07-9.2-1.12,1.02-2.03,1.85-2.94,2.68l-1.15-.66c5.73-6.39,3.75-14.85,6.54-23.05,1.76,6.32-2.25,12.63,4.21,17.5-1.98-.13-2.95-.19-4.3-.27,.41,3.4-.56,6.87,2.88,9.36,.76,.55,.69,2.24,1.08,3.7,1.96,.63,4.18,1.34,6.43,2.06-2.71,7.63-6.22-.41-9.39,.94-.38,1.52-.8,3.18-1.05,4.18,3.31,2.78,6.33,5.32,9.34,7.86l-.53,1.14c-2.49,.44-4.99,.87-7.89,1.38-1.29,4.47-.35,7.13,4.07,10.02,2.72,1.78,5.29,3.84,8.18,5.26,1.29,.64,3.6,.63,4.74-.14,3.26-2.2,6.42-4.79,5.39-9.58-1.57,.23-3.34,.99-4.75,.55-1.26-.39-2.1-2.09-3.43-3.55,2.77-2.1,5.06-3.83,7.55-5.72-1.35-.68-2.59-1.31-4.46-2.27,2.33-.26,3.9-.44,6.59-.74-.95-1.46-1.4-2.64-2.25-3.38-2.76-2.4-2.67-3.96-.36-6.81,1.46-1.8,2.12-4.25,3.14-6.41l-.93-.43c-.75,1.04-1.49,2.08-2.12,2.96,1.37-7.08,2.7-13.98,4.18-21.67,.74,5.5,1.39,10.33,2.03,15.15,.2,.02-.69-.07-1.86-.18,.61,6.81,1.21,13.21,10.09,15.35-1.25,.6-2.51,1.2-3.84,1.84-1.22-.41-3.13-1.06-5.49-1.86v6.05c2.94,2.77,5.58,5.26,8.21,7.74l-.65,.83h-8.17c3.66,6.26,5.46,13.47,13.25,16.45l-.57,1.14c-1.75-.51-3.51-1.02-5.82-1.7,1.29,1.84,2.39,3.41,3.82,5.44,4.74-5.51,9.3-10.56,13.58-15.84,36.25-44.72,72.46-89.48,108.65-134.25,3.19-3.94,6.25-7.99,9.24-12.08,.76-1.04,1.1-2.42,1.49-3.69,1.47-4.79,.22-8.83-3.08-12.57-1.93-2.18-3.28-4.88-4.89-7.34l.79-.69c2.63,1.84,5.29,3.64,7.87,5.55,2.14,1.59,4.15,1.79,6.65,.57,5.41-2.61,10.97-4.92,16.84-6.72-4.6,3.52-9.19,7.05-13.8,10.55-3.7,2.81-5.34,11.16-2.56,14.92,18.3,24.76,36.7,49.46,55.07,74.17,.43,.58,.97,1.07,1.9,2.08,2.74-6.28,5.3-12.16,7.86-18.04,1.41-3.24,4.55-4.02,7.11-1.52,.68,.67,.99,2.54,.55,3.38-3.76,7.17-7.73,14.23-11.66,21.37,10.23,15.21,20.42,30.35,30.61,45.48l-.76,.52c-2.47-3.41-4.95-6.82-7.42-10.23l-.63,.27c.51,1.11,.97,2.26,1.54,3.34,16.78,31.34,33.68,62.61,50.23,94.07,2.18,4.14,5.26,6.94,8.56,9.8,13.21,11.48,26.36,23.02,39.71,34.34,2.83,2.4,7.05,3.35,9.4,6.05,2.31,2.65,3.73,.48,5.52,.37,2.23-.14,4.44-.45,7.14-.73-1.12,1.89-2.03,3.41-3.19,5.38,3.37-.78,6.29-1.46,9.99-2.32-1.56,1.37-2.5,2.19-3.69,3.24,.75,.33,1.31,.57,1.7,.74,.66,2.91-5.57,1.73-3.64,5.46,6.51-2.47,12.68-4.82,18.85-7.16l.24,.47c-3.13,2.77-6.26,5.54-9.39,8.31l.2,.37c2.72-1.35,5.44-2.69,8.16-4.04l.41,.8c-3.05,1.91-6.11,3.81-8.81,5.5,.69,2.48,1.78,4.79,1.81,7.12,.02,1.39-1.44,3.75-2.56,3.97-1.42,.27-3.54-.83-4.71-1.99-2.34-2.32-4.25-5.08-6.37-7.7-6.37,3.81-12.22,7.31-18.24,10.91,.93-3.75,1-7.68,5.09-9.49l-15.95,8.78c-.22-.29-.45-.58-.67-.87,2.99-2.68,5.98-5.36,8.97-8.05l-.27-.93c-4.92,1.44-9.89,2.76-14.76,4.37-5.03,1.66-9.99,3.55-14.94,5.44-4.95,1.89-9.84,3.9-15,5.44,7.28-4.53,14.21-9.65,22.41-12.58,1.3-.14,2.72,0,3.88-.47,5.62-2.26,11.19-4.65,16.73-7.08,.88-.38,1.56-1.19,2.34-1.81l-.44-.56c-1.35,.3-2.69,.61-4.04,.91Zm-185.51-243.2c-9.96,79.71-20.29,162.36-30.58,244.7,11.88-20.24,23.99-40.89,36.11-61.54,.41,.23,.81,.47,1.22,.7-10.97,20.21-21.95,40.41-32.71,60.23,27.91-12.2,56.01-24.48,84.12-36.76,.14,.3,.28,.6,.43,.91-20.26,12.99-41.82,23.57-63.53,33.93,1.66-.18,3.22-.64,4.81-.97,6.53-1.33,13.02-3.47,19.6-3.74,14.18-.59,28.4-.24,42.61-.19,2.05,0,2.77-.76,3.19-2.77,1.6-7.79,3.48-15.52,5.17-23.29,.59-2.7,1.53-5.52,1.27-8.18-1.31-13.22-2.97-26.41-4.42-38.94-1.49-.4-2.69-.73-3.9-1.05,.91-.97,1.83-1.94,3.49-3.71-3.12-27.07-6.39-55.37-9.69-83.96-2.21,1.65-3.93,2.94-5.65,4.23l-.96-.69c.34-1.5,.49-3.08,1.04-4.5,2.62-6.7,5.24-13.41,8.1-20.02,1.08-2.49,.95-4.21-1.55-5.59-14.98,47.03-34.86,91.96-56.46,136.18-.29-.48-.26-.84-.13-1.15,9.59-23.66,13.09-48.67,16.33-73.73,1.79-13.81,3.93-27.59,4.98-41.46,.71-9.3,4.92-18.84-1.18-28.38,7.74-2.39,14.87-4.58,21.89-6.75-8.9-10.28-18.14-20.95-27.82-32.14,1.12,9.98,2.15,19.17,3.19,28.37l-1.04,.13c-1.32-4.98-2.63-9.97-4.13-15.63-1.97,30.6-3.83,60.34-5.83,90.07-1.38,20.48-3.12,40.91-9.23,60.68-1.43,4.62-2.5,9.35-3.74,14.03-.58-.07-1.15-.13-1.73-.2,1.33-60.63,4.24-121.21,6.72-178.83Zm58.84,63.04c7.38,11.62,14.23,22.4,21.08,33.18l-.97,.64c-6.67-7.53-12.27-16.03-20.3-23.43,0,1.4-.05,1.77,0,2.12,3.16,21.39,6.24,42.79,9.54,64.16,1.83,11.86,3.68,23.73,6.19,35.46,2.14,9.97,5.23,19.73,7.91,29.59,.49,1.82,.69,3.8,1.57,5.4,3.91,7.09,7.98,14.09,12.12,21.05,.54,.9,1.87,1.94,2.79,1.91,12.67-.44,25.33-1.06,37.99-1.64l.06-1.2c-14.05-4.5-28.1-9.01-42.15-13.51l.31-1.14c9.02,1.73,18.08,3.29,27.05,5.24,8.24,1.78,16.76,3.08,24.48,6.23,8.37,3.42,16.44,6.29,25.55,4.75,.37-.06,.76,.01,1.14-.04,4.76-.66,9.52-1.33,14.88-2.07-13.86-13.39-27.09-26.17-40.32-38.95l-.67,.51c3.61,5.94,7.22,11.88,10.83,17.82l-1,.6c-35.51-48.71-69.75-98.22-93.89-154.97-1.93,3.8-3.28,6.47-4.2,8.29ZM107.32,381.7c.59-1.93,1.04-3.36,1.24-4-1.92,.12-3.69,.38-5.44,.3-2.27-.1-4.86-.79-5.95,1.89-1.94,4.8-2.26,9.78-.11,14.89,.84-1.83,1.67-3.67,2.6-5.71,1.97,1.02,3.59,1.86,5.2,2.69l-.16,.56h-4.84c3.04,3.59,5.64,6.65,8.03,9.48-2.03,1.03-3.61,1.83-5.2,2.64l-.83,1.5c-1.71-2.44-3.42-4.88-5.13-7.32l-1.35,1.03c2.02,5.61,5.46,10.41,9.46,14.46-1.18,1.39-2.24,2.64-3.49,4.11,3.37,2.46,6.44,4.7,9.72,7.09,1.24-8.8-.05-17.47,4.15-25.25,.68,3.71,1.35,7.42,2.1,11.56,5.31-6.92,7.56-12.76,5.9-14.96-1.05,.35-2.12,.7-4.13,1.38,.3-2.45,.58-4.39,.76-6.35,.2-2.14,.3-4.3,.44-6.44-1.36,1.47-2.1,3.04-2.9,4.58-1.83,3.51-4.07,4.45-6.98,2.58-2.73-1.75-2.57-4.32-1.21-6.94,.7-1.36,1.41-2.71,2.45-4.74-1.93,.44-2.94,.66-4.36,.99Zm157.79,70.48c.21,.24,.42,.47,.63,.71,.76-.95,1.47-1.94,2.28-2.84,20.59-22.86,38.62-47.62,54.64-73.85,25.49-41.72,46.93-85.54,66.91-130.09,.46-1.02,.82-2.09,1.22-3.14-.92,.32-1.25,.85-1.5,1.42-17.48,38.2-36.38,75.67-57.36,112.07-14.17,24.58-28.88,48.81-46.59,71.07-6.61,8.31-13.47,16.44-20.22,24.65Zm-123.47-105.43c1.59,10.89,9.45,18.95,18.56,19.54,.23-2.72,.47-5.45,.7-8.18-.26-.05-.53-.1-.79-.15-.5,1.06-1,2.13-1.49,3.18-7.37-2.21-12.08-7.59-16.99-14.38Zm32.07,27.11c.86-4.09,1.57-7.45,2.22-10.51-3.81-1.61-7.28-3.08-11.49-4.86,1.55,4.43,2.95,8.43,4.34,12.41-.81-.32-1.64-.64-2.46-.97l-.41,1.2c2.41,.84,4.82,1.69,7.8,2.73Zm-21.55-3.3c-4.06,3.29-4.72-2.08-7.14-2.92,1.03,5.49,9.09,12.31,14.8,12.38v-5.15c-2.76-1.55-5.1-2.87-7.66-4.31Zm2.73,24.16c-3.48-2.85-5.76-4.71-8.05-6.58-.43-.03-.86-.05-1.3-.08,4,4.69,1.18,6.86-2.19,8.91-.9-1.16-1.8-2.33-2.7-3.49l-.52,.35,2.88,7.38c3.96-2.17,7.5-4.1,11.88-6.5Zm24.42-20.98l-.65,.62c1.68,2.56,3.37,5.12,5.19,7.9,5.5-3.07,7.85-7.7,9.38-13.34-2.51,2.11-4.74,3.99-6.96,5.87,.3,.1,.61,.19,.91,.29-.58,1.23-1.15,2.46-1.59,3.4-2.44-1.84-4.36-3.29-6.27-4.73Zm-6.42,2.11c-2.86,.14-5.29,.27-7.73,.39,.22,5.97,1.01,6.72,6.65,6.09,.34-2.01,.68-4.07,1.09-6.48Zm73.37-2.77c-.18-2.34,.42-5.01-.65-6.27-1.99-2.33-4.94-3.84-7.36-5.59-.61,2.57,3.58,9.4,8.01,11.86Zm216.25-85.28c.07-.43,.13-.86,.2-1.29-10.38-1.55-20.76-3.09-31.14-4.64l-.18,1.17c10.37,1.59,20.74,3.17,31.12,4.76Zm-204.78,76.03l-.87-.92c-2.73,1.62-5.46,3.23-8.17,4.84,.59,3.5,2.13,4.16,4.46,1.75,1.68-1.74,3.06-3.77,4.58-5.67Zm-20.62,6.77c3.02,2.87,5.59,5.32,8.27,7.87,1.79-3.56-1.71-6.83-8.27-7.87Zm-47.17,17.09c-2.42,.7-4.4,1.17-6.28,1.89-.54,.21-1.17,1.18-1.11,1.72,.08,.76,.65,1.64,1.28,2.09,.34,.24,1.46-.13,1.86-.57,1.44-1.55,2.72-3.25,4.26-5.13Zm38.72-8.11l-.73-.89c-1.33,.84-3.05,1.43-3.85,2.63-.49,.74,.41,2.41,.68,3.67,.46,.02,.92,.04,1.37,.07,.84-1.82,1.68-3.65,2.52-5.47Zm-84.27,22.72l-.55,.96c.72,1.22,1.44,2.44,2.65,4.5,1.15-1.87,1.9-3.08,2.65-4.3l-4.75-1.17Zm2.47,8.07c1.24,.88,2.35,2.11,2.78,1.9,1.38-.66,2.52-1.85,3.75-2.83l-.71-1.13c-1.69,.6-3.38,1.19-5.82,2.05Z"/><path d="M619.2,453.41c-1.72-1-3.44-2.01-5.15-3.01l.11,.08c-1.92-1.14-3.85-2.28-5.77-3.41l.11,.13c-6.52-4.24-13.09-8.38-19.53-12.74-5.66-3.82-11.59-7.4-16.61-11.96-4.74-4.3-8.56-9.64-12.59-14.68-7.28-9.1-14.51-18.24-21.47-27.59-.97-1.3-.26-3.86-.35-6.34-.69,.15-2,.44-3.96,.86-5.11-6.92-10.57-14.31-16.07-21.76,4.47-2.17,4.35-2.98-.83-7.06,1.31-.06,2.33-.11,4.1-.2,0-3.42-.07-6.63,.05-9.84,.04-.94,.36-2.16,1.01-2.74,2.89-2.56,3.11-5.31,1.32-7.62,1.08-2.17,1.86-3.74,3.15-6.34v12.95c1.96,1.21,3.5,2.15,5.33,3.28-1.96,1.54-3.52,2.75-5.07,3.97,.2,.44,.4,.87,.61,1.31l8.23-.77c.1,.34,.19,.68,.29,1.02-2.38,.81-4.77,1.62-7.72,2.62,2.22,1.72,4.3,3.33,6.9,5.35-1.87,.64-3.08,1.06-4.3,1.48,1.77,5.2,5.34,7.78,9.65,6.02,10.56-4.32,12.6-3.71,11.04-13.19h-7.12c-.23-.56-.46-1.11-.7-1.67l6.47-5.75c.53,.14,1.06,.28,1.59,.41-.65-2.17-1.3-4.35-1.88-6.27-3.13,1.39-5.45,2.42-7.86,3.5-.52-1.75-.89-2.98-1.28-4.27,2.6-.98,6.29-1.23,7.6-3.13,2.17-3.16,2.82-7.38,4.31-11.74-2.24,.21-3.27,.31-3.57,.33,.72-2.67,1.72-5.28,2.07-7.98,.36-2.8,.08-5.68,.72-8.76,.56,2.04,1.15,4.07,1.67,6.12,.78,3.11,2.02,6.22,2.11,9.36,.1,3.54,1.94,5.92,4.28,8.26l-.72,.7c-1.37-.67-2.74-1.34-4.28-2.09,.29,3.25,1.18,5.92,4.37,7.37,.67,.3,1.09,1.15,1.62,1.74-.58,.52-1.17,1.03-1.74,1.56-1.3,1.2-2.59,2.42-4.42,4.13,3.89,1.56,6.64,2.66,9.69,3.89-1.7,1.25-3.27,2.4-5.31,3.9,1.94,1.2,3.59,2.21,5.23,3.22-1.08,3.25,.13,4.64-8.16,.66-.61,3.81,1.6,6.24,3.9,8.43,2.36,2.25,5.04,4.16,7.93,6.5-4.04,2.15-6.3-.38-8.71-2.49-.51,.48-1.03,.96-1.46,1.36,1.58,2.27,3.17,4.55,4.86,6.97,2.33-1.41,4.25-3.09,4.87,1.27,.27,1.91,2.63,3.51,4.23,5.49,4.19-2.11,8.82-4.44,13.92-7.01-.77-.52-1.47-.96-2.14-1.44-.48-.34-.94-.73-1.13-.87-1.58,.96-3.29,1.99-5,3.03l-.88-1.32c1.11-.81,2.23-1.61,3.44-2.5-1.2-4.54-4.54,1.14-6.28-1.25,1-5.16,5.99-4.14,9.66-5.49-.52-1.22-.9-2.1-1.39-3.25,1.05-.33,2-.63,2.95-.93l-.02-.33-10.95,.73v-.97c3.24-1.54,7.3-2.36,9.5-4.84,2.13-2.4,2.35-6.5,3.73-10.86-2.68,.72-3.88,1.05-6.28,1.7,4.41-3.81,6.81-7.11,4.26-12.13-.52-1.03,1.06-3.14,2.07-5.79,.65,3.6,1.72,6.27,1.47,8.81-.58,5.73,1.23,10.36,4.71,15.08-1.56-.76-3.12-1.52-5.77-2.81,1.27,2.47,1.76,4.84,3.19,5.76,1.09,.71,3.39-.3,5.11-.71,2.06-.49,4.15-1.83,6.1-1.61,7.7,.88,11.24-4.68,15.39-9.34,2.07-2.33,3.92-4.84,5.87-7.27l.95,.37-.45,6.33,1.04,.06c.23-3.46,.46-6.92,.69-10.38-.34-.16-.69-.32-1.03-.47-3.26,2.88-6.52,5.76-10.06,8.89,.88-2.93,1.68-5.64,2.65-8.86-3.98,2.04-7.27,3.73-10.55,5.42l-.54-.74c.57-.83,1.14-1.67,1.77-2.58-.75-.31-1.31-.55-2.02-.84,.89-.8,1.75-1.51,2.55-2.29,5.15-5.04,10.05-10.32,16.94-13.27,1.47-.63,2.02-3.44,2.99-5.25l-1.09-.78c-1.7,.87-3.39,1.75-5.09,2.62l-.96-.53c1.07-3.16,2.15-6.31,3.38-9.93-3.95,4.08-7.26,8.05-11.12,11.38-5.12,4.41-11.09,7-18.14,6.28-4.65-.47-7.72-3.52-7.8-8.29,1.08,.46,2.05,.87,3.47,1.47-.53-.97-.88-1.63-1.35-2.49,.8,.24,1.44,.44,1.27,.38,1.06-.94,1.75-2.06,2.4-2.05,2.11,.06,4.21,.52,6.3,.87,2.13,.36,4.25,.77,6.49,.56-1.4-.87-2.8-1.74-4.2-2.61l.28-.82,7.51,.78,.14-.49c-2.36-1.21-4.72-2.42-7.67-3.93,1.42-.73,1.94-1,2.61-1.34-1.36-1.13-2.65-2.21-3.93-3.27,.35-.47,.51-.8,.61-.79,10.2,1.52,17.47-4.36,24.83-9.92,.83-.63,1.67-1.79,1.77-2.77,.54-5.5,.85-11.03,.42-16.81-.73,1.03-1.46,2.06-1.6,2.26-2.34,.58-3.86,1.07-5.4,1.29-.73,.1-1.98-.09-2.23-.56-2.07-3.78-5.35-3.69-9.59-2.83,1.07-2,1.89-3.55,2.72-5.1,1.75-2.02,3.49-4.05,5.24-6.07,3.56-1.75,7.02-3.8,10.74-5.1,1.23-.43,3.14,1.08,4.55,1.63-.59-3.54-.91-3.72-4.52-2.79-1.47,.38-3.01,.46-4.48,.67,1.98-4.79,3.76-9.08,5.86-14.15-2.3,.82-3.43,1.22-4.56,1.62l-.41-.7c-.61,1.07-1.21,2.14-2.33,4.11,.25-1.94,.36-2.88,.57-4.51-5.18,4.74-9.93,9.39-17.55,6.21,.72-1.19,1.34-2.21,2.04-3.36h-10.03c4.7-4.48,9.64-5.71,14.64-6.32,5.17-.63,8.45-4.01,13.23-7.31-1.73-.22-2.46-.13-2.95-.42-.68-.41-1.38-1.03-1.66-1.73-.13-.31,.65-1.16,1.18-1.54,6.98-5.03,8.76-10.21,6.62-19.04h-3.65l-.1-.88c-.47,.5-.93,1-1.36,1.46-.64-.83-1.12-1.96-1.96-2.42-.9-.49-2.15-.35-3.83-.56,3.17-2.45,6.08-4.44,8.64-6.82,.99-.92,1.67-2.74,1.62-4.12-.12-3.92-.91-7.81-1-11.73-.05-2.15-1.69-5,1.81-6.41,.47-.19,.24-2.12,.33-3.25,.14-1.71,.27-3.42,1.14-5.28,2.91,15.55,9.03,29.8,15.13,44.4-1.28-1.55-2.56-3.1-4.2-5.08,.28,1.21,.46,1.95,.85,3.64-2.2-2.83-3.85-4.93-5.69-7.3-1.61,3.71-.84,6.78,1.67,9.15,2.25,2.13,5.01,3.72,7.53,5.54-2.66,4.25-3.33,4.19-10.15-.32,1.5,5.09,2.95,10.2,4.58,15.25,.17,.51,1.46,.66,2.22,.99,5.25,2.25,10.25,4.83,13.93,10.76-1.84-.1-3.27,.2-4.28-.31-2.7-1.36-3.8-.52-4.65,2.19-.66,2.09-2.05,3.96-3.11,5.91,.25-2.46,.49-4.91,.74-7.36l-1.15-.17c-.76,2.21-1.28,4.54-2.35,6.59-1.01,1.93-2.58,3.56-3.96,5.4,1.59-.75,3.52-1.65,5.45-2.56,3.85,2.05,7.58,4.41,11.61,6.01,1.95,.78,4.46,.13,7.13,1.03-1.83,1.28-3.66,2.57-5.93,4.16,.06,.17,.41,1.22,1.07,3.14l-6.36-1.68c-.1,.35-.29,1.02-.63,2.27-1.87-1.03-3.6-1.99-5.75-3.17-1.92,1.14-2.06,2.6,.25,4.53,3.8,3.16,7.53,6.41,11.19,9.74,1.19,1.08,2.05,2.52,2.61,4.61-1.71-.67-3.42-1.33-5.33-2.08-1.46,3.31-3.71,2.37-6.02,.77-2.04-1.41-4.07-2.83-6.84-4.75-.32,10.78,3.56,18.94,10.49,25.94-1.35-2.69-2.69-5.38-4.04-8.06,9.19,2.64,13.72,12.53,24.11,12.32-.04,.55-.07,1.09-.11,1.64-2.94,.92-5.89,2.6-8.81,2.54-2.58-.05-5.11-2.05-7.68-3.19,0-.07,0,.56,0,1.87-6.1-2.17-11.8-4.21-17.7-6.31,.32,3.93,4.34,3.27,6.51,4.82,2.46,1.76,4.98,3.46,7.59,4.99,2.54,1.49,5.23,2.74,8.47,4.41-2.33,1.68-3.93,2.84-5.82,4.2,1.75,6.76,11.15,12.66,19.19,11.03,3.94-.8,7.3,.45,11.04,2.41-2.71,.72-4.91,1.3-7.1,1.89,.04,.22,.07,.44,.11,.66,1.06,.13,2.11,.26,3.17,.38l.22,.67c-1.58,.63-3.16,1.26-4.65,1.85l2.71,3.8c-5.35,3.22-6.06,2.99-13.32-4.04,.24,1.81,.45,3.37,.81,6.03l-7.57-5.44c-.68,1.55-1.11,4.74-2.58,5.32-1.65,.65-4.23-1.05-7.42-2.05,2.6,1.95,4.56,3.42,6.52,4.89-.42,.51-.83,1.02-1.25,1.53-3.71-2.54-7.42-5.09-11.13-7.63,4.9,9.97,13.63,15.33,24,18.71l-.54,1.02h-8.11c1.27,1.41,2.31,2.57,3.35,3.72l-.46,.76c-1.94-.72-3.84-1.74-5.85-2.06-1.3-.21-3.44,.16-4.01,1.05-1.05,1.62-.5,3.47,1.83,4.03,2.57,.62,5.13,1.43,7.74,1.71,2.61,.27,3.68,1.68,4.39,3.94,.86,2.72,1.95,5.36,2.98,8.13-2.72,2.13-4.36,.05-6.62-1.99,.39,2.04,.78,4.09,1.21,6.36-1.27-.51-2.58-1.03-4.49-1.8,2.06,4.2,3.88,7.93,5.71,11.67l-.49,.31-2.15-1.8c-2.95,2.8-6.15,3.43-7.71,1.15-1.65-2.43-2.72-5.27-4.63-7.76,.44,4.15,.88,8.3,1.41,13.29-1.73-.3-3.52-.61-6.53-1.12,2.94,5.54,5.62,10.6,8.76,16.52,.91-4.68,1.66-8.57,2.42-12.46l.87-.25c.84,3.98,2.03,7.92,2.42,11.94,.42,4.27,.09,8.61,.09,13.5,5.91-3.56,10.89-7.25,14.28-14.26-3.56,1.4-6.15,2.43-9.61,3.79,2.27-2.5,3.95-4.35,5.85-6.44-2.87-1.68-5.4-3.15-7.92-4.62l.42-.87c1.29,.56,2.62,1.05,3.86,1.7,5.75,2.97,7.71,1.82,8.31-6.03-2,2.39-3.42,4.07-5.22,6.22-1.54-1.57-3.02-3.08-4.5-4.59,2.68-2.63-.39-7.91,4.43-9.57,.21,.58,.23,1.37,.64,1.74,1.02,.93,2.22,1.68,3.34,2.5,.68-1.11,1.84-2.18,1.94-3.34,.18-2.17-.26-4.39-.49-7.09-2.11,2.42-3.81,4.38-5.52,6.34,1.01-3.21,2.17-6.37,2.93-9.64,.29-1.26-.34-2.73-.64-4.62,3.37-1.29,1.26-5.36,2.07-9.13,.79,1.24,1.3,2.03,1.97,3.08v-7.32c.34-.04,.68-.08,1.02-.12,.16,2.44,.42,4.88,.47,7.32,.07,3.32,.43,6.29,5.18,6.5-1.29,.69-2.57,1.39-4.21,2.27v5.46c4.03,1.81,7.81,3.5,11.58,5.19l-.05,1.64c-1.83,.78-3.66,1.56-6.12,2.61-1.51,4.68-.9,5.58,4.82,7.21,1.87,.53,3.46,1.98,5.25,2.86,1.01,.5,2.29,1.12,3.24,.88,.84-.21,2-1.61,1.92-2.37-.11-1.05-1.25-1.99-2.33-3.52-.48-3.06,5.76-5.56,2.09-10.4,1.09-2.19,4.74-4.71,.16-6.84,1.53-1.38,2.84-2.56,4.18-3.77,.36,4.37,.73,8.85,1.12,13.66,1.26,.09,2.52,.18,3.96,.28q-5.04,3.81-4.4,7.3c.7-.3,1.32-.63,1.98-.83,.68-.21,1.4-.31,2.41-.52-2.5,2.8-.84,8.57,3.2,11.98,.13-.89,.24-1.67,.35-2.46l1.18,.49c-1.14,2.28-2.29,4.57-3.43,6.85l-.82-.34c.63,1.48,1.26,2.96,1.82,4.26h5.09c-1.24,1.41-1.85,2.11-2.54,2.89,.74,.65,1.36,1.19,2.34,2.05h-8.73c2.5,2.27,4.71,5.79,6.66,5.65,2.46-.17,4.71-3.32,7.53-5.56-.38,2.08-.53,3.73-1,5.28-.5,1.66-1.3,3.23-1.97,4.85,4.38-2.67,8.73-5.33,13.08-7.98,.19,.27,.39,.54,.58,.81-.79,.85-1.58,1.7-2.89,3.1,1.59-.45,2.48-.7,3.58-1.01-.25,.41-.36,.77-.6,.96-9.05,7.2-18.65,13.55-29.5,17.62-3.08,1.15-6.71,.85-10.08,1.21-.11-.38-.22-.76-.34-1.14,1.75-1.34,3.51-2.68,5.26-4.03l-.32-.66c-6.54,2.88-13.08,5.76-19.63,8.63l-.32-.55,3.14-2.15-.23-.46c-1.49,.58-3.05,1.01-4.45,1.76-6.45,3.45-13.36,3.67-20.47,3.49-2.8-.07-5.62,1.23-8.46,1.8-2.57,.52-5.16,.91-7.75,1.35,3.19-1.89,6.38-3.79,9.57-5.68l-.18-.29c-4.69,1.46-9.38,2.93-14.58,4.55,2.01,.51,3.65,.93,5.29,1.35,3.7,3.09,7.71,5.62,12.72,5.57,2.43-.02,4.42,.16,4.43,3.17,0,2.51-2.31,4.22-5.12,3.66-1.17-.23-2.25-1.03-3.33-1.64-7-3.96-13.95-8-21.01-11.86-.98-.54-2.43-.23-3.67-.31-.25-.52-.5-1.04-.75-1.57Zm-11.16-87.56c9.78-2.28,16.19-9.3,17.65-19.41-4.95,5.98-9.28,12.1-17.06,13.69-.79-1.38-1.37-2.4-1.95-3.43l-.54,.19,1.89,8.95Zm-12.72,20.54c2.86-3.7,9.93-4.05,7.93-11.48-5.15,2.79-9.74,2.24-13.97-1.71-.35,.37-.71,.74-1.06,1.12,2.3,3.92,4.6,7.84,7.09,12.08Zm85.89,26.46c4.3,6.23,6.52,6.74,9.96,2.52,1.95-2.39,3.41-5.18,5.13-7.85-4.28-2.03-6.37-.02-7.63,3.7-1.97-1.06-3.6-1.94-5.89-3.18,2.13,2.46,3.71,4.28,5.3,6.11l-.6,.93c-1.86-.66-3.71-1.32-6.27-2.22Zm-64.77-43.85c-1.96,1.1-3.58,2.09-5.27,2.94-3.94,2-4.36,3.35-2.09,7.7,5.22-2.99,11.02-5.26,13.04-11.71-3.62,3.94-4.22,4.08-5.68,1.07Zm-13.86-.04c-3.14-3.35-7.86-3.49-14.52-.62,8.59,5.69,9.21,5.72,14.52,.62Zm24.43,65.29l-.7-1.52c-7.19,.57-11.96,5.93-18.21,9.31,1.12,.63,1.97,1.43,2.31,1.25,5.57-2.94,11.08-6.01,16.6-9.04Zm-12.42-41.37c1.63,5.65,6.42,5.68,10.72,6.84,.6-1.82,1.17-3.54,1.75-5.27l-.51-.23c-.56,.84-1.12,1.68-1.79,2.68l-4.41-3.15c.71-1.62,1.34-3.06,1.69-3.88-2.4,.96-4.84,1.94-7.46,3Zm-29.22-14.79c-4.47-.26-8.15-.47-12.16-.71,.84,2.69,1.54,4.95,2.24,7.17,3.25-2.12,6.45-4.21,9.92-6.47Zm17.66-20.63c-1.92,.93-3.58,1.77-5.27,2.53-1.81,.81-3.66,1.55-5.6,2.36,10.74,3.76,10.12,3.37,10.87-4.89Zm-20.89,29.91c-2.91,1.4-4.97,2.39-6.98,3.36v4.52c2.91-2.04,6.34-2.99,6.98-7.87Zm-31.76-19.05q-6.92,2.68-6.03,6.13c1.57-.99,3.18-2,5.49-3.46,0,0,.22-1.07,.54-2.68Zm78.76,68.15c-4.78,2.9-9.56,5.81-14.35,8.71l.77,1.35c4.91-2.68,9.26-6.35,13.57-10.06Zm-79.45-75.34c-.34-.2-.67-.4-1.01-.6q-5.5,5.36-4.83,9.01c2.19-3.16,4.02-5.79,5.84-8.41Zm127.1,31.4c-1.46,4.02-.94,4.98,3.45,6.12-2.26-1.41,2.83-6.79-3.45-6.12Zm-113.41-20.18c-1.83,3.96-.04,5.49,3.65,5.73-1.22-1.91-2.43-3.82-3.65-5.73Zm75.39,14.79l1.33-.37c-.75-2.91-1.51-5.82-2.26-8.73l-1.25,.32c.73,2.93,1.46,5.86,2.19,8.79Zm-97.82-28.75h-6.65c3.2,3.36,4.48,3.33,6.65,0Z"/><path d="M602.49,273.09c-5.06-2.44-10.19-4.73-15.15-7.35-6.59-3.48-13.01-7.29-19.57-10.83-6.46-3.48-12.04-7.83-15.93-14.21-2.65-4.35-7.01-6.09-11.86-6.6-4.16-.44-8.35-.88-12.52-.8-3.63,.07-6.51-1.09-9.42-3.14-14.49-10.23-29.08-20.3-43.63-30.44-1.01-.71-1.96-1.5-2.94-2.25,.15-.32,.29-.65,.44-.97,6.69,2.75,13.38,5.5,20.82,8.55-3.27-7.57-7.58-12.71-14.21-16.2-11.74-6.18-23.23-12.86-34.8-19.37-1.28-.72-2.4-1.74-3.23-3.28,6.66,2.78,13.31,5.56,19.97,8.35l.36-.52c-5.1-5.72-10.1-11.53-15.31-17.15-9.76-10.5-19.69-20.84-29.42-31.37-2.02-2.19-3.21-2.18-5.49-.23-15.79,13.53-31.93,26.66-47.51,40.42-4.46,3.94-7.54,9.46-11.1,14.38-5.27,7.29-10.38,14.7-15.58,22.04-.69,.98-1.51,1.86-2.78,2.47,5.49-10.72,10.98-21.43,15-29.27-3.15-4.57-5.27-8.09-7.89-11.18-.78-.92-3.14-1.22-4.48-.81-3.12,.95-6.15,2.34-9.04,3.88-1.23,.65-2.22,2-2.97,3.24-2.06,3.4-3.94,6.91-6.58,10.05,1.21-4.59,2.42-9.19,3.65-13.88-2.16-1.41-4.27-2.78-6.87-4.48-3.12,4.16-6.3,8.21-9.28,12.4-9.93,13.93-19.77,27.92-29.68,41.86-2.61,3.67-4.06,7.25-2.24,11.98,1.6,4.18-.09,6.86-4.3,8.8-1.59,.73-3.26,1.3-5.43,2.15,3.56,5.94,10.02,5.82,15.25,8.16-3.35,2.57-6.83,3.17-10.69,1.54-2.32-.98-4.69-1.85-7.02-2.82-4.59-1.92-8.42,.25-12.14,2.41-.84,.49-1.19,2.12-1.43,3.29-1.7,8.15-4.49,9.89-12.51,8.09-2.12-.47-4.43-.13-6.65-.08-2,.05-4.01,.12-5.99,.35-1.8,.22-3.86,.21-5.32,1.1-4.48,2.76-9.23,3.93-14.43,3.9-11.02-.08-22.04-.02-32.93-.02,7.58-1.21,15.38-2.53,23.21-3.67,7.2-1.05,14.53-1.33,20.88-5.66,4.69-3.2,9.8-3.44,15.23-1.67,5.55,1.81,7.92,.11,8.88-5.68,1.41-8.53,1.96-8.98,10.48-9.77,1.58-.15,3.11-.87,4.65-1.37,2.72-.88,5.4-1.9,8.16-2.64,2.9-.78,4.63-1.67,4.73-5.5,.13-4.66,1.03-9.68,3.06-13.83,10.14-20.76,22.19-40.38,36.65-58.45,.87-1.09,1.81-2.14,2.84-3.06,3.1-2.76,5.54-2.87,8.83-.33,2.1,1.63,4.07,3.43,6.08,5.18,2.34,2.04,4.59,1.77,6.77-.21,1.13-1.02,2.19-2.11,3.29-3.17,3.76-3.61,5.6-3.89,10.03-1.01,2.86,1.86,5.65,3.88,8.21,6.13,1.89,1.65,3.16,1.32,4.88-.14,17.74-14.96,35.55-29.83,53.3-44.78,4.32-3.64,5.32-3.89,9.09,.31,14.49,16.14,28.84,32.41,43.22,48.64,2.27,2.56,4.64,5.06,6.64,7.83,4.57,6.31,10.46,10.36,18.07,12.3,3.23,.82,6.22,2.74,9.2,4.38,4.5,2.47,7.32,6.36,7.88,11.45,.58,5.33,3.35,9.16,7.2,12.48,4.51,3.89,9.02,7.78,13.59,11.61,.61,.51,1.58,.98,2.3,.88,14.14-1.97,25.29,4.76,33.21,14.77,8.44,10.67,19.34,17.2,30.24,24.23,4.12,2.65,8.27,5.26,12.4,7.88l-.38,.73Z"/><path d="M127.92,247.12c-1.42-3.32-2.83-6.64-4.66-10.94v7.36l-.62,.27c-1.24-2.87-2.47-5.73-3.8-8.81-1.55,.78-2.97,1.5-4.58,2.32-2-3.35,.51-5.14,2.5-6.45,3.08-2.04,6.58-3.45,9.86-5.21,.57-.3,1.16-.91,1.35-1.5,1.56-4.9,3.03-9.83,3.86-15.16-1.5,1.19-3,2.38-4.51,3.57-2,1.58-3.47,.34-4.25-1.27-.3-.62,.68-2.49,1.53-2.93,6.15-3.24,9.17-7.28,6.69-13.08-1.19,1.45-2.28,2.78-3.85,4.69,.28-1.7,.44-2.7,.76-4.64-1.73,2.58-2.92,4.36-4.12,6.14l-.25-.21c4.82-13.8,9.65-27.6,14.6-41.77,.5,6.4,1.13,12.6,1.41,18.82,.14,3.01-.47,6.05-.54,9.09-.02,.82,.54,1.84,1.15,2.43,1.46,1.42,3.07,2.67,4.68,3.92,1.3,1.01,2.69,1.9,4.4,3.1-1.76,.31-3.91,.7-6.26,1.12l.14,3.02c-1.7-.76-3.01-1.34-5.44-2.43,.26,4.51-.38,8.85,.97,12.46,1.28,3.42,4.64,6.05,7.52,9.57-.51,.2-1.81,.71-3.47,1.36,2.97,3.57,6.4,6.47,11.34,7.62,4.69,1.09,9.26,2.72,13.88,4.11l-.27,1.95c-2.62,.16-5.24,.33-8.08,.51,.49,.85,1.12,1.94,1.99,3.47h-5.15l-.33,2.68c-4.47-3.31-8.42-6.23-12.07-8.94,.06,.39,.22,1.45,.45,2.99-1.97-1.57-3.6-2.87-5.23-4.16l-1.15,.56c.58,2.3,.91,4.7,1.8,6.87,.89,2.16,2.33,4.1,4.04,7-3.4-.58-6-1.03-8.61-1.48-3.25,4.76-3.77,4.8-7.38,.32-.16,.71-.28,1.24-.41,1.78,0,0,.1-.1,.1-.1Z"/><path d="M512.67,261.18c8.77-4.67,17.51-9.4,26.35-13.94,1.16-.59,3.15-.7,4.25-.1,12.52,6.81,24.95,13.8,37.22,21.24-5.09-1.87-10.22-3.66-15.27-5.65-6.11-2.4-12.23-4.78-18.18-7.53-3.01-1.39-5.64-1.36-8.71-.37-6.94,2.25-13.98,4.22-21,6.21-1.43,.41-2.97,.41-4.46,.6l-.19-.47Z"/><path d="M594.35,451.15c-6.73-8.43-13.1-16.4-19.46-24.37l.54-.64c8.74,6.33,17.49,12.66,26.63,19.28l-7.72,5.73Z"/><path d="M693.75,456.22c.37-.62,.72-1.2,1.52-2.55-8.18,1.6-15.64,3.06-22.57,4.42,2.87-3.43,6.5-5.49,12.79-5.28,7.24,.25,14.03-.9,20.53-4,2.79-1.33,4.83-.92,5.75,2.37-5.16,7.35-5.23,5.46-18.01,5.03Z"/><path d="M174.58,444.21c.61-.23,1.23-.47,1.84-.7-.59,.76-1.03,1.8-1.81,2.24-5.49,3.07-11.06,5.99-16.57,9.01-2.2,1.2-4.27,2.64-6.52,3.72-1.27,.61-2.88,1.2-4.14,.92-1.02-.23-2.15-1.66-2.45-2.77-.14-.53,1.38-1.93,2.37-2.29,8.94-3.25,17.94-6.35,26.91-9.52,.17-.06,.25-.4,.37-.6Z"/><path d="M614.04,450.41c-.44,.59-.89,1.19-1.46,1.96,1.08-.18,2.03-.33,2.97-.48-4.57,3.4-8.86,7.33-15.66,7.36,4.58-3.93,8.56-7.7,14.26-8.76,0,0-.11-.07-.11-.07Z"/><path d="M617.66,251.56c-1.75,2.02-3.49,4.05-5.24,6.07l-6.68,4.52-1.02-1.36c4.09-3.88,8.18-7.76,12.94-12.27v3.05Z"/><path d="M154.43,258.05c-1.74-1.93-3.47-3.86-5.21-5.79-.16-.6-.32-1.2-.48-1.8,3.27,.47,9.18,5.65,13.01,11.4l-.63,.9c-2.23-1.57-4.47-3.14-6.7-4.71Z"/><path d="M591.88,483.82c1.35-.3,2.69-.61,4.04-.91l.44,.56c-.78,.61-1.46,1.42-2.34,1.81-5.55,2.43-11.11,4.82-16.73,7.08-1.17,.47-2.58,.33-3.88,.47,5.01-2.3,10.04-4.58,15.03-6.93,1.21-.57,2.3-1.38,3.45-2.07Z"/><path d="M608.39,447.07c-.14,.57-.09,1.42-.46,1.68-3.34,2.38-6.75,4.66-10.51,7.22-.06-1.23-.09-1.94-.12-2.65,1.84-1.25,3.68-2.5,5.53-3.75,1.89-.79,3.79-1.57,5.68-2.36l-.11-.13Z"/><path d="M79,457.33c-3.2,.52-6.4,1.05-9.59,1.57l-.23-1.04c7.29-1.81,14.58-3.61,21.87-5.42l.19,.65c-4.11,1.45-8.23,2.89-12.35,4.34,0,0,.12-.1,.12-.1Z"/><path d="M312.89,170.85c-1.67,3.76-3.34,7.53-5.02,11.29l-1.02-.44c.55-4.25,.87-8.6,4.92-11.39l1.11,.54Z"/><path d="M619.2,453.41c.25,.52,.5,1.04,.75,1.57-2.79,1.34-5.58,2.67-8.37,4.01,1.57-3.44,3.98-5.44,7.61-5.58Z"/><path d="M602.82,449.56c-1.84,1.25-3.68,2.5-5.53,3.75-1.76-.13-2.67-.72-.78-2.07,2.31-1.65,4.76-3.11,7.79-5.06-.71,1.62-1.1,2.49-1.48,3.37Z"/><path d="M451.33,432.02c-3.58,3.17-7.16,6.33-11.65,10.3,4.37-.67,7.73-1.18,10.43-1.59-14.41,6.28-29.38,12.81-44.35,19.34l-.26-.43c15.08-9.52,30.15-19.05,45.23-28.57,.2,.32,.39,.64,.59,.96Z"/><path d="M492.93,437.7c14.23,5.81,28.09,11.47,41.95,17.12l-.3,.91c-10.33-2.64-20.67-5.28-31-7.92-1.34-.34-2.69-.67-4.04-.98q-6.32-1.44-6.6-9.14Z"/><path d="M474.96,339.99c15.06,9.43,24.71,23.28,32.31,38.82-10.77-12.94-21.54-25.88-32.31-38.82Z"/></svg>