<?xml version="1.0" encoding="UTF-8" standalone="no"?>
<svg xmlns="http://www.w3.org/2000/svg" viewBox="0 0 450 250" width="450" height="250">
  <title>Wedding Rings</title>
  <g transform="translate(25, 25)">
    <!-- Left Ring -->
    <path d="M115,45 
             C75,45 40,80 40,125 
             C40,170 75,205 120,205 
             C150,205 175,190 190,165 
             C180,145 175,120 175,95 
             C175,75 180,60 190,45 
             C165,45 140,45 115,45z" 
      fill="black" stroke="white" stroke-width="2"/>
    
    <!-- Right Ring -->
    <path d="M265,45 
             C240,45 215,55 200,70 
             C190,80 175,100 175,125 
             C175,145 180,165 195,180 
             C210,195 235,205 265,205 
             C310,205 345,170 345,125 
             C345,80 310,45 265,45z" 
      fill="black" stroke="white" stroke-width="2"/>
    
    <!-- Overlapping details -->
    <path d="M190,45 
             C180,60 175,75 175,95 
             C175,120 180,145 190,165 
             C185,155 180,145 178,130 
             C175,100 180,70 190,45z" 
      fill="black" stroke="white" stroke-width="1.5"/>
  </g>
</svg>